<svg width="428" height="38" viewBox="0 0 428 38" fill="none" xmlns="http://www.w3.org/2000/svg">
    <path d="M21.072 2.448H24.432L12.624 36.528L0.72 2.448H4.08L12.624 26.832L21.072 2.448ZM31.9868 36H28.8188V2.448H31.9868V36ZM54.297 32.832C57.465 32.832 60.537 31.728 62.985 29.712L65.001 32.208C59.289 36.912 51.177 37.296 44.985 33.216C38.841 29.088 36.105 21.456 38.265 14.352C40.377 7.296 46.905 2.448 54.297 2.448C58.041 2.448 61.689 3.696 64.665 6L62.697 8.496C60.297 6.624 57.369 5.616 54.297 5.616C46.809 5.616 40.713 11.712 40.713 19.248C40.713 26.736 46.809 32.832 54.297 32.832ZM75.4013 36V5.616H66.7613V2.448H87.2093V5.616H78.5693V36H75.4013ZM104.266 36C95.0018 36 87.5138 28.512 87.5138 19.248C87.5138 9.984 95.0018 2.448 104.266 2.448C113.53 2.448 121.066 9.984 121.066 19.248C121.066 28.512 113.53 36 104.266 36ZM104.266 5.616C96.7778 5.616 90.6818 11.712 90.6818 19.248C90.6818 26.736 96.7778 32.832 104.266 32.832C111.802 32.832 117.898 26.736 117.898 19.248C117.898 11.712 111.802 5.616 104.266 5.616ZM129.815 24.864V36H126.647V2.448H139.079C144.791 2.448 149.639 6.768 150.215 12.432C150.839 18.144 147.095 23.376 141.479 24.624L150.167 36H146.183L137.687 24.864H129.815ZM129.815 5.616V21.696H139.079C143.543 21.696 147.095 18.096 147.095 13.632C147.095 9.216 143.543 5.616 139.079 5.616H129.815ZM159.206 36H156.038V2.448H159.206V36ZM166.924 36H163.516L177.292 1.776L190.924 36H187.516L184.684 28.944H169.756L166.924 36ZM177.292 10.32L171.052 25.776H183.436L177.292 10.32ZM198.393 11.04V36H195.225V2.064L215.577 27.216V2.448H218.745V36.192L198.393 11.04ZM267.188 36H262.195V14.25L252.398 26.3203L242.719 14.3203V36H237.703V0.09375L252.398 18.3516L267.188 0.140625V36ZM289.734 36C286.531 36 283.57 35.2109 280.852 33.6328C278.133 32.0547 275.977 29.9062 274.383 27.1875C272.805 24.4688 272.016 21.5078 272.016 18.3047C272.016 15.1016 272.805 12.1406 274.383 9.42188C275.977 6.70312 278.133 4.55469 280.852 2.97656C283.57 1.39844 286.531 0.609375 289.734 0.609375C292.141 0.609375 294.43 1.07812 296.602 2.01562C298.789 2.95312 300.672 4.21094 302.25 5.78906C303.828 7.36719 305.086 9.25 306.023 11.4375C306.961 13.6094 307.43 15.8984 307.43 18.3047C307.43 20.7109 306.961 23.0078 306.023 25.1953C305.086 27.3672 303.828 29.2422 302.25 30.8203C300.672 32.3984 298.789 33.6562 296.602 34.5938C294.43 35.5312 292.141 36 289.734 36ZM289.734 5.60156C288.016 5.60156 286.367 5.9375 284.789 6.60938C283.227 7.28125 281.875 8.1875 280.734 9.32812C279.609 10.4531 278.711 11.8047 278.039 13.3828C277.367 14.9453 277.031 16.5859 277.031 18.3047C277.031 20.6016 277.594 22.7266 278.719 24.6797C279.859 26.6172 281.406 28.1562 283.359 29.2969C285.312 30.4219 287.438 30.9844 289.734 30.9844C292.031 30.9844 294.148 30.4219 296.086 29.2969C298.039 28.1562 299.578 26.6172 300.703 24.6797C301.844 22.7266 302.414 20.6016 302.414 18.3047C302.414 16.0078 301.844 13.8828 300.703 11.9297C299.578 9.97656 298.039 8.4375 296.086 7.3125C294.148 6.17187 292.031 5.60156 289.734 5.60156ZM317.25 13.2891V35.7422H312.234V0.140625L332.625 23.0156V0.351562H337.641V36.1641L317.25 13.2891ZM367.594 0.609375L351.914 18.4453L367.641 36H360.914L348.586 22.2188L347.438 23.5078V36H342.422V0.609375H347.438V15.9375L360.914 0.609375H367.594ZM393.609 30.9844V36H372.422V0.609375H393.609V5.60156H377.438V19.8281H391.453V24.8438H377.438V30.9844H393.609ZM421.617 0.609375H427.289L415.406 22.7578V36H410.391V23.1797L398.484 0.609375H404.156L412.805 17.0156L421.617 0.609375Z" fill="white"/>
</svg>
