<svg width="75" height="75" viewBox="0 0 75 75" fill="none" xmlns="http://www.w3.org/2000/svg">
    <path d="M31.3828 72.2578L28.1718 71.4375L27.7734 68.8828L27.3515 66.3281L26.3906 65.7656C25.875 65.4609 24.914 64.7578 24.3047 64.2188L23.1797 63.2109L20.7187 63.4922C19.3828 63.6563 18.1875 63.7031 18.0703 63.6563C17.9062 63.5391 14.8359 58.4531 14.5781 57.8438C14.5312 57.75 15.1406 56.7656 15.9375 55.6641L17.3672 53.6953L16.9922 51.9375C16.8047 50.9766 16.6406 49.7344 16.6406 49.1719C16.6172 48.1875 16.5703 48.1172 14.6484 46.6406C12.9375 45.3047 12.6797 45.0469 12.7968 44.5313C12.8437 44.2031 13.2422 42.6797 13.664 41.1328L14.414 38.3203L16.4765 37.9922C17.6015 37.8047 18.5156 37.5703 18.5156 37.4766C18.5156 37.3828 17.9062 36.6797 17.1328 35.9062C15.4453 34.1719 14.414 32.1797 14.414 30.6563C14.414 29.3203 14.9765 28.4766 16.4297 27.6563C17.2734 27.1875 17.7422 27.0938 19.1484 27.1172L20.8593 27.1641V25.9922C20.8593 23.1328 18.7265 14.1328 17.1797 10.5938C16.6172 9.25781 16.1718 7.94531 16.2187 7.6875C16.3828 6.63281 20.8828 4.71094 25.5468 3.67969C30.3047 2.625 34.0781 2.22656 39.8437 2.22656C45.3047 2.22656 46.5234 2.39063 47.5781 3.23438L48.0937 3.65625L47.6015 6.46875C46.9453 10.125 46.9687 10.7578 47.8359 17.9766C48.4218 22.6641 48.6562 24.1406 48.914 24.1406C49.0781 24.1406 49.6172 23.8828 50.1093 23.5781C50.5781 23.25 51.4218 22.875 51.9609 22.7109C52.8515 22.4531 53.039 22.4766 54.0703 22.9922C55.3593 23.6484 56.25 25.0547 56.25 26.5078C56.25 27.4453 55.6406 29.3672 54.8672 30.8906C54.0234 32.5313 54.1172 32.6016 56.2031 32.4375L58.0078 32.2969L59.7187 35.2969L61.4531 38.2734L60.7031 39.3516C60.2812 39.9375 59.625 40.8516 59.25 41.3906L58.5703 42.3516L58.9218 44.1328C59.1328 45.1172 59.2968 46.3359 59.2968 46.8516C59.2968 47.7422 59.3906 47.8594 61.289 49.3594C62.625 50.4141 63.2578 51.0703 63.1875 51.3047C63.1172 51.5156 62.7422 52.9922 62.3203 54.6094C61.9218 56.2266 61.5468 57.5859 61.5 57.6328C61.4531 57.6797 60.2812 57.9141 58.9218 58.1484C57.539 58.3828 56.414 58.6172 56.3906 58.6406C55.875 59.5547 54.8203 60.9844 54.1406 61.7344L53.25 62.7188L53.5312 65.1563C53.6953 66.5156 53.8125 67.6875 53.7656 67.7578C53.6718 67.9453 48.5859 70.9219 48 71.1328C47.7187 71.25 47.0156 70.875 45.7734 69.9609C43.9453 68.6484 43.9453 68.625 42.6562 68.7891C41.9531 68.8594 40.8515 68.9766 40.1953 69.0469C38.2031 69.2578 38.0859 69.3047 36.5625 71.25C35.7422 72.2813 34.9687 73.125 34.8281 73.1016C34.6875 73.1016 33.1406 72.7031 31.3828 72.2578ZM43.5 64.6875C46.1953 63.3516 48.4687 60.2813 49.0547 57.1406C49.4765 54.8203 48.6328 51.9141 46.8515 49.6641C46.4765 49.1953 46.1718 48.5156 46.1718 48.1875C46.1718 47.5781 46.1718 47.5781 44.1797 47.5781C42.5625 47.5781 42.1875 47.6484 42.1875 47.9297C42.1875 48.1406 41.9765 48.2813 41.6718 48.2813C41.1797 48.3047 41.1797 48.3281 41.5547 48.5391C41.8125 48.7031 41.9531 49.0547 41.9531 49.6641C41.9531 50.4844 41.8828 50.5781 41.25 50.7188C40.875 50.7891 40.2422 50.9297 39.8672 51L39.1875 51.1406L39.0234 53.7188C38.9297 55.125 38.9062 56.3203 38.9765 56.3906C39.1875 56.6016 42 55.8047 43.5703 55.0781C45.164 54.3281 46.6406 54.1641 47.0859 54.7031C47.25 54.8906 47.3437 55.5 47.2968 56.0625C47.2265 57.0469 47.1797 57.0938 45.7734 57.8438C43.5468 59.0156 41.1562 59.5547 37.289 59.6953C33.6797 59.8359 33.3515 60.1406 36.4922 60.375C38.5078 60.5391 38.9062 60.7266 38.9062 61.5469C38.9062 62.625 39.4218 64.4531 39.8906 65.0625C40.3125 65.5781 40.5 65.6484 41.2265 65.5313C41.6718 65.4609 42.7031 65.0859 43.5 64.6875ZM36.7031 55.6406C36.6328 55.0313 36.5625 53.7656 36.5625 52.8281V51.0938H35.8828C35.4844 51.0938 35.1093 51 35.039 50.8594C34.9687 50.7422 34.5937 50.625 34.1953 50.625C33.5859 50.625 33.5156 50.5547 33.5156 49.875C33.5156 49.4766 33.6797 48.9375 33.914 48.7031C34.2656 48.3047 34.2656 48.2813 33.914 48.2813C33.6797 48.2813 33.5156 48.0938 33.5156 47.7891C33.5156 47.5312 33.4218 47.3906 33.2812 47.4609C33.164 47.5313 33.0468 47.9297 33.0468 48.3047C33.0468 48.7266 32.7656 49.3594 32.3437 49.875C31.4297 51.0469 30.4922 53.1563 30.2578 54.6094C30.0703 55.7344 30.0937 55.8281 30.6094 56.0156C31.2656 56.2734 34.1484 56.6484 35.7187 56.6953L36.8672 56.7188L36.7031 55.6406ZM38.2031 49.2422C38.2031 48.4453 38.2968 48.2813 38.8593 48.0938L39.4922 47.8828L38.625 47.6953C38.1328 47.6016 37.3593 47.625 36.8672 47.7656C36.375 47.9063 36.1875 48 36.4687 48.0234C37.1484 48.0469 37.5 48.5156 37.5 49.3828C37.5 49.9219 37.6172 50.1563 37.8515 50.1563C38.1093 50.1563 38.2031 49.8984 38.2031 49.2422ZM28.5937 46.3125C28.5937 45.7031 28.7343 45.4219 29.25 45.0938C31.3593 43.7109 32.6484 42.6563 32.1797 42.6563C31.9218 42.6563 30.8906 43.2422 29.9062 43.9453C27.2343 45.8672 26.4843 45.7266 26.4843 43.2188C26.4843 42.3047 26.4375 42.2344 25.7343 42.0938C24.8672 41.9297 24.7968 41.9766 24.7968 42.75C24.7968 43.7578 25.7812 45.4453 26.9062 46.2891C28.2422 47.3203 28.5937 47.3438 28.5937 46.3125ZM49.2187 45.5625C49.5703 45.1406 50.039 44.3203 50.2734 43.7344C50.6718 42.7031 50.6718 42.6094 50.2734 41.5781C50.039 40.9688 49.5703 40.1484 49.2187 39.7734C48.6328 39.1172 48.5156 39.0703 47.9531 39.3281C47.5547 39.5156 47.3437 39.7734 47.3437 40.1484C47.3437 40.5703 46.7109 41.1563 44.2968 42.8906C41.4609 44.9297 40.875 45.4688 41.4843 45.4688C41.625 45.4688 42.9609 44.5781 44.4609 43.4766C46.5937 41.9297 47.3672 41.4844 47.9765 41.4844H48.75V43.1484C48.75 44.9063 48.5625 45.4453 47.6015 46.5L46.9922 47.1797L47.7656 46.7344C48.2109 46.5 48.8437 45.9609 49.2187 45.5625ZM36.0937 33.6328C37.4297 33.4453 39.2109 33.1172 40.0781 32.9062C42.2109 32.3906 45.6093 30.7266 46.8984 29.5781L47.9765 28.6172L47.6015 27L47.25 25.3828L46.289 25.8047C44.9062 26.4141 41.5312 27.3516 38.3203 28.0313C33.7968 28.9688 26.2265 29.0625 23.039 28.2188C22.5234 28.0781 22.5 28.1484 22.5 29.25C22.5 30.8438 22.8047 31.5469 23.7187 32.1094C24.6797 32.6953 26.7656 33.4922 28.0078 33.75C29.5547 34.0547 33.4687 34.0078 36.0937 33.6328Z" fill="black"/>
    <path d="M39.3046 65.8828C38.7421 65.2031 38.2031 63.4219 38.2031 62.25C38.2031 61.4297 37.8046 61.2422 35.789 61.0781C33.7734 60.9141 33.0468 60.6563 33.0468 60.0469C33.0468 59.1328 33.3515 59.0625 36.7031 58.9688C40.3828 58.875 42.6328 58.3828 44.9765 57.1875C46.5703 56.3906 46.8984 55.9453 46.3359 55.3828C45.9843 55.0312 45.8203 55.0547 44.3671 55.7344C42.7968 56.4609 40.8515 57.0234 39.0468 57.2812L38.1328 57.3984L38.2265 54.1875C38.3203 51.0937 38.2968 50.9766 37.8515 50.9766C37.4062 50.9766 37.3828 51.1172 37.4531 54.2344L37.5234 57.4922L34.875 57.3516C32.0156 57.1875 29.789 56.8359 29.4375 56.4844C29.0859 56.1328 29.6484 52.9219 30.3281 51.3984C30.6796 50.6484 31.2656 49.6641 31.6406 49.1953L32.3203 48.3516H30.5156C29.2031 48.3516 28.4062 48.2109 27.6093 47.8594C25.2187 46.8047 23.6718 44.2969 24.0234 42.0469C24.1875 40.8984 24.164 40.8984 26.039 41.2969C27.3515 41.5547 27.3984 41.6016 27.2578 42.2344C27.1875 42.5859 27.2109 43.2422 27.2812 43.6875L27.4453 44.5078L29.2265 43.2422C30.914 42.0234 31.0781 41.9531 32.4609 41.9531C33.2578 41.9531 34.5703 41.8828 35.3671 41.8125L36.7968 41.6484V42.4453C36.7968 43.8984 36.3281 44.9766 35.2734 46.0312C34.3125 46.9687 33.9609 47.5781 34.4062 47.5781C34.5 47.5781 34.9921 47.4141 35.5078 47.2266C36.7734 46.7812 38.8125 46.7813 40.1718 47.25C40.7812 47.4609 41.3203 47.5781 41.3906 47.5078C41.625 47.2969 40.7578 46.1953 39.9609 45.7031C39.0468 45.1406 38.6015 44.1562 38.6015 42.75C38.6015 41.5547 38.7421 41.3672 39.8203 41.1563C40.5 41.0391 40.5703 41.0625 40.4296 41.4375C40.125 42.1641 40.0312 43.4531 40.2421 43.9688C40.4062 44.4609 40.6171 44.3437 43.5468 42.2344C46.289 40.2422 46.6171 39.9375 46.2656 39.6797C46.0312 39.5156 45.8906 39.3516 45.9609 39.3047C46.2421 39.0703 48.375 37.9688 48.5156 37.9688C48.6328 37.9688 49.0546 38.25 49.4765 38.6016C50.4609 39.4453 51.3281 41.3203 51.3281 42.6562C51.3281 44.7422 49.6406 47.1328 47.6484 47.8594L46.8984 48.1406L47.5546 48.9609C50.9062 53.2266 50.6953 59.2031 47.0625 63.1641C45.3515 65.0391 43.4531 66.0469 40.9921 66.4219C39.9843 66.5625 39.8671 66.5391 39.3046 65.8828ZM36.6562 49.7578C37.0546 48.75 35.5546 48.4219 34.6875 49.3359L34.1484 49.9219H34.875C35.2734 49.9219 35.6484 50.0156 35.7421 50.1562C35.9296 50.4375 36.4921 50.2031 36.6562 49.7578ZM40.7578 49.9219C41.414 49.9219 41.3671 49.5938 40.6406 49.1016C39.914 48.6328 38.9062 48.7969 38.9062 49.4063C38.9062 50.0391 39.375 50.4141 39.8671 50.1562C40.1015 50.0156 40.5 49.9219 40.7578 49.9219ZM33.0468 46.5234C34.1484 45.9609 34.9687 44.6719 35.1093 43.3125C35.2031 42.3281 35.1562 42.1641 34.8984 42.3281C33.8906 42.9375 29.414 46.2422 29.3437 46.4062C29.1562 46.9219 32.0859 47.0156 33.0468 46.5234ZM46.1953 46.3359C47.3671 45.5391 48.0468 44.4141 48.0468 43.1953C48.0468 42.3984 47.9765 42.2109 47.7421 42.3516C46.8281 42.8906 42.1875 46.3125 42.1875 46.4531C42.1875 46.6875 42.8671 46.8281 44.2031 46.8516C45.0937 46.875 45.6093 46.7344 46.1953 46.3359Z" fill="white"/>
    <path d="M19.9219 51.1641C18.1172 49.1484 17.6484 47.3437 18.3984 45.5156C18.8437 44.4609 19.8984 42.8906 20.1797 42.8906C20.3437 42.8906 22.5 45.6563 23.039 46.5469C23.1328 46.7109 22.875 47.5078 22.5 48.3281C22.1015 49.1484 21.6562 50.3672 21.5156 51.0469C21.3515 51.7266 21.1406 52.2656 21.0469 52.2656C20.9765 52.2656 20.4609 51.7734 19.9219 51.1641ZM21.6328 47.5781C21.7265 47.2969 20.3437 45.4453 20.1094 45.5156C19.7109 45.6562 19.0547 46.6641 18.8906 47.4141C18.75 48 18.7969 48.0703 19.2187 47.9297C19.5469 47.8359 19.6875 47.8828 19.6875 48.1406C19.6875 48.3516 19.8515 48.9375 20.0625 49.4531L20.4609 50.4141L21.0234 49.0547C21.3281 48.3047 21.6094 47.6484 21.6328 47.5781Z" fill="white"/>
    <path d="M54.4219 51.0469C54.2812 50.3672 53.8125 49.1484 53.4375 48.3281L52.7344 46.8047L53.5781 45.5625C54.0469 44.8828 54.7266 43.9922 55.1016 43.5469L55.7812 42.7734L56.25 43.3594C57.1406 44.4609 57.8906 46.2422 57.8906 47.2031C57.8906 47.7422 57.6797 48.5859 57.4453 49.1016C57.0234 50.0156 55.1953 52.2656 54.8906 52.2656C54.7969 52.2656 54.5859 51.7266 54.4219 51.0469ZM56.25 48.2109C56.25 47.8828 56.3672 47.8125 56.7188 47.9297C57.1406 48.0703 57.1875 48 57.0469 47.4141C56.8828 46.6875 56.25 45.6563 55.8516 45.5391C55.7109 45.4922 55.2891 45.8906 54.9141 46.4531L54.2344 47.4609L54.7734 48.6328C55.0547 49.2891 55.3125 49.9688 55.3359 50.1562C55.3594 50.625 56.2266 48.75 56.25 48.2109Z" fill="white"/>
    <path d="M27.3047 34.4531C26.0625 34.1953 23.9766 33.3984 23.0156 32.8125C21.9844 32.1796 21.7969 31.5468 21.7969 28.8515V26.5546L22.9219 27.0937C27.0938 29.1328 39.9375 27.8437 46.2422 24.7734C47.1094 24.3281 47.8594 24.0468 47.9297 24.0937C48 24.164 48.0469 24.4921 48.0469 24.8203C48.0469 25.1718 48.2578 26.2265 48.5391 27.1875L49.0312 28.9453L47.7656 30.0937C46.3359 31.4296 43.125 33.0234 40.7812 33.6093C36.8906 34.5468 29.9766 34.9921 27.3047 34.4531Z" fill="white"/>
</svg>
